<mxfile host="app.diagrams.net" modified="2024-01-16T04:27:01.420Z" agent="Mozilla/5.0 (Windows NT 10.0; Win64; x64) AppleWebKit/537.36 (KHTML, like Gecko) Chrome/120.0.0.0 Safari/537.36" etag="gEJB3cv31muhJaPegddN" version="22.1.18" type="device">
  <diagram name="페이지-1" id="VgVzL6VrYZBoVipJYnuF">
    <mxGraphModel dx="2968" dy="2176" grid="1" gridSize="10" guides="1" tooltips="1" connect="1" arrows="1" fold="1" page="1" pageScale="1" pageWidth="827" pageHeight="1169" math="0" shadow="0">
      <root>
        <mxCell id="0" />
        <mxCell id="1" parent="0" />
        <mxCell id="ZHCm1Jnx4q_sE-uWkugh-14" style="rounded=0;orthogonalLoop=1;jettySize=auto;html=1;exitX=0.5;exitY=1;exitDx=0;exitDy=0;entryX=0.5;entryY=0;entryDx=0;entryDy=0;" parent="1" source="ZHCm1Jnx4q_sE-uWkugh-4" target="ZHCm1Jnx4q_sE-uWkugh-13" edge="1">
          <mxGeometry relative="1" as="geometry" />
        </mxCell>
        <mxCell id="ZHCm1Jnx4q_sE-uWkugh-56" style="rounded=0;orthogonalLoop=1;jettySize=auto;html=1;exitX=0;exitY=0.5;exitDx=0;exitDy=0;entryX=1;entryY=0.5;entryDx=0;entryDy=0;" parent="1" source="ZHCm1Jnx4q_sE-uWkugh-4" target="ZHCm1Jnx4q_sE-uWkugh-54" edge="1">
          <mxGeometry relative="1" as="geometry" />
        </mxCell>
        <mxCell id="ZHCm1Jnx4q_sE-uWkugh-57" style="rounded=0;orthogonalLoop=1;jettySize=auto;html=1;exitX=0;exitY=0.5;exitDx=0;exitDy=0;entryX=1;entryY=0.5;entryDx=0;entryDy=0;" parent="1" source="ZHCm1Jnx4q_sE-uWkugh-4" target="ZHCm1Jnx4q_sE-uWkugh-55" edge="1">
          <mxGeometry relative="1" as="geometry" />
        </mxCell>
        <mxCell id="k28qQrlDTg5cHLkqzxxn-5" style="edgeStyle=none;curved=1;rounded=0;orthogonalLoop=1;jettySize=auto;html=1;exitX=0;exitY=0.5;exitDx=0;exitDy=0;entryX=1;entryY=0.5;entryDx=0;entryDy=0;fontSize=12;startSize=8;endSize=8;" edge="1" parent="1" source="ZHCm1Jnx4q_sE-uWkugh-4" target="k28qQrlDTg5cHLkqzxxn-4">
          <mxGeometry relative="1" as="geometry" />
        </mxCell>
        <mxCell id="ZHCm1Jnx4q_sE-uWkugh-4" value="사용자" style="whiteSpace=wrap;html=1;align=center;" parent="1" vertex="1">
          <mxGeometry x="270" y="-70" width="100" height="40" as="geometry" />
        </mxCell>
        <mxCell id="ZHCm1Jnx4q_sE-uWkugh-37" style="rounded=0;orthogonalLoop=1;jettySize=auto;html=1;exitX=0.5;exitY=1;exitDx=0;exitDy=0;entryX=0.5;entryY=0;entryDx=0;entryDy=0;" parent="1" source="ZHCm1Jnx4q_sE-uWkugh-9" target="ZHCm1Jnx4q_sE-uWkugh-20" edge="1">
          <mxGeometry relative="1" as="geometry" />
        </mxCell>
        <mxCell id="ZHCm1Jnx4q_sE-uWkugh-49" style="rounded=0;orthogonalLoop=1;jettySize=auto;html=1;exitX=0.5;exitY=1;exitDx=0;exitDy=0;entryX=0.5;entryY=0;entryDx=0;entryDy=0;" parent="1" source="ZHCm1Jnx4q_sE-uWkugh-9" target="ZHCm1Jnx4q_sE-uWkugh-21" edge="1">
          <mxGeometry relative="1" as="geometry" />
        </mxCell>
        <mxCell id="ZHCm1Jnx4q_sE-uWkugh-50" style="rounded=0;orthogonalLoop=1;jettySize=auto;html=1;exitX=0.5;exitY=1;exitDx=0;exitDy=0;entryX=0.5;entryY=0;entryDx=0;entryDy=0;" parent="1" source="ZHCm1Jnx4q_sE-uWkugh-9" target="ZHCm1Jnx4q_sE-uWkugh-23" edge="1">
          <mxGeometry relative="1" as="geometry" />
        </mxCell>
        <mxCell id="ZHCm1Jnx4q_sE-uWkugh-51" style="rounded=0;orthogonalLoop=1;jettySize=auto;html=1;exitX=0.5;exitY=1;exitDx=0;exitDy=0;entryX=0.5;entryY=0;entryDx=0;entryDy=0;" parent="1" source="ZHCm1Jnx4q_sE-uWkugh-9" target="ZHCm1Jnx4q_sE-uWkugh-24" edge="1">
          <mxGeometry relative="1" as="geometry" />
        </mxCell>
        <mxCell id="k28qQrlDTg5cHLkqzxxn-3" style="edgeStyle=none;curved=1;rounded=0;orthogonalLoop=1;jettySize=auto;html=1;exitX=0;exitY=0.5;exitDx=0;exitDy=0;entryX=0.5;entryY=0;entryDx=0;entryDy=0;fontSize=12;startSize=8;endSize=8;" edge="1" parent="1" source="ZHCm1Jnx4q_sE-uWkugh-9" target="k28qQrlDTg5cHLkqzxxn-1">
          <mxGeometry relative="1" as="geometry" />
        </mxCell>
        <mxCell id="ZHCm1Jnx4q_sE-uWkugh-9" value="냉장고" style="whiteSpace=wrap;html=1;align=center;" parent="1" vertex="1">
          <mxGeometry x="100" y="320" width="100" height="40" as="geometry" />
        </mxCell>
        <mxCell id="ZHCm1Jnx4q_sE-uWkugh-44" style="edgeStyle=orthogonalEdgeStyle;rounded=0;orthogonalLoop=1;jettySize=auto;html=1;exitX=0.5;exitY=1;exitDx=0;exitDy=0;entryX=0.5;entryY=0;entryDx=0;entryDy=0;" parent="1" source="ZHCm1Jnx4q_sE-uWkugh-12" target="ZHCm1Jnx4q_sE-uWkugh-32" edge="1">
          <mxGeometry relative="1" as="geometry" />
        </mxCell>
        <mxCell id="ZHCm1Jnx4q_sE-uWkugh-45" style="edgeStyle=orthogonalEdgeStyle;rounded=0;orthogonalLoop=1;jettySize=auto;html=1;exitX=0.5;exitY=1;exitDx=0;exitDy=0;entryX=0.5;entryY=0;entryDx=0;entryDy=0;" parent="1" source="ZHCm1Jnx4q_sE-uWkugh-12" target="ZHCm1Jnx4q_sE-uWkugh-33" edge="1">
          <mxGeometry relative="1" as="geometry" />
        </mxCell>
        <mxCell id="ZHCm1Jnx4q_sE-uWkugh-46" style="edgeStyle=orthogonalEdgeStyle;rounded=0;orthogonalLoop=1;jettySize=auto;html=1;exitX=0.5;exitY=1;exitDx=0;exitDy=0;entryX=0.5;entryY=0;entryDx=0;entryDy=0;" parent="1" source="ZHCm1Jnx4q_sE-uWkugh-12" target="ZHCm1Jnx4q_sE-uWkugh-34" edge="1">
          <mxGeometry relative="1" as="geometry" />
        </mxCell>
        <mxCell id="ZHCm1Jnx4q_sE-uWkugh-47" style="edgeStyle=orthogonalEdgeStyle;rounded=0;orthogonalLoop=1;jettySize=auto;html=1;exitX=0.5;exitY=1;exitDx=0;exitDy=0;entryX=0.5;entryY=0;entryDx=0;entryDy=0;" parent="1" source="ZHCm1Jnx4q_sE-uWkugh-12" target="ZHCm1Jnx4q_sE-uWkugh-35" edge="1">
          <mxGeometry relative="1" as="geometry" />
        </mxCell>
        <mxCell id="ZHCm1Jnx4q_sE-uWkugh-48" style="edgeStyle=orthogonalEdgeStyle;rounded=0;orthogonalLoop=1;jettySize=auto;html=1;exitX=0.5;exitY=1;exitDx=0;exitDy=0;entryX=0.5;entryY=0;entryDx=0;entryDy=0;" parent="1" source="ZHCm1Jnx4q_sE-uWkugh-12" target="ZHCm1Jnx4q_sE-uWkugh-36" edge="1">
          <mxGeometry relative="1" as="geometry" />
        </mxCell>
        <mxCell id="ZHCm1Jnx4q_sE-uWkugh-53" style="edgeStyle=orthogonalEdgeStyle;rounded=0;orthogonalLoop=1;jettySize=auto;html=1;exitX=0;exitY=0.5;exitDx=0;exitDy=0;entryX=1;entryY=0.5;entryDx=0;entryDy=0;" parent="1" source="ZHCm1Jnx4q_sE-uWkugh-12" target="ZHCm1Jnx4q_sE-uWkugh-17" edge="1">
          <mxGeometry relative="1" as="geometry" />
        </mxCell>
        <mxCell id="k28qQrlDTg5cHLkqzxxn-8" style="edgeStyle=none;curved=1;rounded=0;orthogonalLoop=1;jettySize=auto;html=1;exitX=0.5;exitY=1;exitDx=0;exitDy=0;entryX=0.5;entryY=0;entryDx=0;entryDy=0;fontSize=12;startSize=8;endSize=8;" edge="1" parent="1" source="ZHCm1Jnx4q_sE-uWkugh-12" target="k28qQrlDTg5cHLkqzxxn-6">
          <mxGeometry relative="1" as="geometry" />
        </mxCell>
        <mxCell id="ZHCm1Jnx4q_sE-uWkugh-12" value="식품" style="whiteSpace=wrap;html=1;align=center;" parent="1" vertex="1">
          <mxGeometry x="480" y="320" width="100" height="40" as="geometry" />
        </mxCell>
        <mxCell id="ZHCm1Jnx4q_sE-uWkugh-15" style="rounded=0;orthogonalLoop=1;jettySize=auto;html=1;exitX=0;exitY=1;exitDx=0;exitDy=0;entryX=0.5;entryY=0;entryDx=0;entryDy=0;" parent="1" source="ZHCm1Jnx4q_sE-uWkugh-13" target="ZHCm1Jnx4q_sE-uWkugh-9" edge="1">
          <mxGeometry relative="1" as="geometry" />
        </mxCell>
        <mxCell id="ZHCm1Jnx4q_sE-uWkugh-16" style="rounded=0;orthogonalLoop=1;jettySize=auto;html=1;exitX=1;exitY=1;exitDx=0;exitDy=0;entryX=0.5;entryY=0;entryDx=0;entryDy=0;" parent="1" source="ZHCm1Jnx4q_sE-uWkugh-13" target="ZHCm1Jnx4q_sE-uWkugh-12" edge="1">
          <mxGeometry relative="1" as="geometry" />
        </mxCell>
        <mxCell id="k28qQrlDTg5cHLkqzxxn-10" style="edgeStyle=none;curved=1;rounded=0;orthogonalLoop=1;jettySize=auto;html=1;exitX=0.5;exitY=1;exitDx=0;exitDy=0;entryX=0.5;entryY=0;entryDx=0;entryDy=0;fontSize=12;startSize=8;endSize=8;" edge="1" parent="1" source="ZHCm1Jnx4q_sE-uWkugh-13" target="k28qQrlDTg5cHLkqzxxn-9">
          <mxGeometry relative="1" as="geometry" />
        </mxCell>
        <mxCell id="ZHCm1Jnx4q_sE-uWkugh-13" value="추가하기" style="shape=rhombus;perimeter=rhombusPerimeter;whiteSpace=wrap;html=1;align=center;" parent="1" vertex="1">
          <mxGeometry x="250" y="20" width="120" height="60" as="geometry" />
        </mxCell>
        <mxCell id="ZHCm1Jnx4q_sE-uWkugh-52" style="edgeStyle=orthogonalEdgeStyle;rounded=0;orthogonalLoop=1;jettySize=auto;html=1;exitX=0;exitY=0.5;exitDx=0;exitDy=0;entryX=1;entryY=0.5;entryDx=0;entryDy=0;" parent="1" source="ZHCm1Jnx4q_sE-uWkugh-17" target="ZHCm1Jnx4q_sE-uWkugh-9" edge="1">
          <mxGeometry relative="1" as="geometry" />
        </mxCell>
        <mxCell id="ZHCm1Jnx4q_sE-uWkugh-17" value="보관하기" style="shape=rhombus;perimeter=rhombusPerimeter;whiteSpace=wrap;html=1;align=center;" parent="1" vertex="1">
          <mxGeometry x="260" y="310" width="120" height="60" as="geometry" />
        </mxCell>
        <mxCell id="ZHCm1Jnx4q_sE-uWkugh-20" value="온도" style="ellipse;whiteSpace=wrap;html=1;align=center;" parent="1" vertex="1">
          <mxGeometry x="-240" y="450" width="100" height="40" as="geometry" />
        </mxCell>
        <mxCell id="ZHCm1Jnx4q_sE-uWkugh-21" value="이름" style="ellipse;whiteSpace=wrap;html=1;align=center;" parent="1" vertex="1">
          <mxGeometry x="-100" y="450" width="100" height="40" as="geometry" />
        </mxCell>
        <mxCell id="ZHCm1Jnx4q_sE-uWkugh-23" value="사진" style="ellipse;whiteSpace=wrap;html=1;align=center;" parent="1" vertex="1">
          <mxGeometry x="10" y="460" width="100" height="40" as="geometry" />
        </mxCell>
        <mxCell id="ZHCm1Jnx4q_sE-uWkugh-24" value="메모" style="ellipse;whiteSpace=wrap;html=1;align=center;" parent="1" vertex="1">
          <mxGeometry x="130" y="460" width="100" height="40" as="geometry" />
        </mxCell>
        <mxCell id="ZHCm1Jnx4q_sE-uWkugh-26" style="edgeStyle=orthogonalEdgeStyle;rounded=0;orthogonalLoop=1;jettySize=auto;html=1;exitX=0.5;exitY=1;exitDx=0;exitDy=0;" parent="1" source="ZHCm1Jnx4q_sE-uWkugh-23" target="ZHCm1Jnx4q_sE-uWkugh-23" edge="1">
          <mxGeometry relative="1" as="geometry" />
        </mxCell>
        <mxCell id="ZHCm1Jnx4q_sE-uWkugh-28" value="수량" style="ellipse;whiteSpace=wrap;html=1;align=center;" parent="1" vertex="1">
          <mxGeometry x="200" y="230" width="100" height="40" as="geometry" />
        </mxCell>
        <mxCell id="ZHCm1Jnx4q_sE-uWkugh-29" value="제품이름" style="ellipse;whiteSpace=wrap;html=1;align=center;" parent="1" vertex="1">
          <mxGeometry x="340" y="210" width="100" height="40" as="geometry" />
        </mxCell>
        <mxCell id="ZHCm1Jnx4q_sE-uWkugh-32" value="유통기한" style="ellipse;whiteSpace=wrap;html=1;align=center;" parent="1" vertex="1">
          <mxGeometry x="450" y="420" width="100" height="40" as="geometry" />
        </mxCell>
        <mxCell id="ZHCm1Jnx4q_sE-uWkugh-33" value="보관방법" style="ellipse;whiteSpace=wrap;html=1;align=center;" parent="1" vertex="1">
          <mxGeometry x="580" y="420" width="100" height="40" as="geometry" />
        </mxCell>
        <mxCell id="ZHCm1Jnx4q_sE-uWkugh-34" value="이름" style="ellipse;whiteSpace=wrap;html=1;align=center;" parent="1" vertex="1">
          <mxGeometry x="710" y="420" width="100" height="40" as="geometry" />
        </mxCell>
        <mxCell id="ZHCm1Jnx4q_sE-uWkugh-35" value="수량" style="ellipse;whiteSpace=wrap;html=1;align=center;" parent="1" vertex="1">
          <mxGeometry x="840" y="420" width="100" height="40" as="geometry" />
        </mxCell>
        <mxCell id="ZHCm1Jnx4q_sE-uWkugh-36" value="분류" style="ellipse;whiteSpace=wrap;html=1;align=center;" parent="1" vertex="1">
          <mxGeometry x="1000" y="420" width="100" height="40" as="geometry" />
        </mxCell>
        <mxCell id="ZHCm1Jnx4q_sE-uWkugh-54" value="ID" style="ellipse;whiteSpace=wrap;html=1;align=center;" parent="1" vertex="1">
          <mxGeometry y="-140" width="100" height="40" as="geometry" />
        </mxCell>
        <mxCell id="ZHCm1Jnx4q_sE-uWkugh-55" value="비밀번호" style="ellipse;whiteSpace=wrap;html=1;align=center;" parent="1" vertex="1">
          <mxGeometry y="-60" width="100" height="40" as="geometry" />
        </mxCell>
        <mxCell id="k28qQrlDTg5cHLkqzxxn-1" value="고유번호" style="ellipse;whiteSpace=wrap;html=1;align=center;fontStyle=4;fontSize=16;" vertex="1" parent="1">
          <mxGeometry x="-370" y="450" width="100" height="40" as="geometry" />
        </mxCell>
        <mxCell id="k28qQrlDTg5cHLkqzxxn-4" value="고유번호" style="ellipse;whiteSpace=wrap;html=1;align=center;fontStyle=4;fontSize=16;" vertex="1" parent="1">
          <mxGeometry x="-10" y="10" width="100" height="40" as="geometry" />
        </mxCell>
        <mxCell id="k28qQrlDTg5cHLkqzxxn-6" value="고유번호" style="ellipse;whiteSpace=wrap;html=1;align=center;fontStyle=4;fontSize=16;" vertex="1" parent="1">
          <mxGeometry x="364" y="380" width="100" height="40" as="geometry" />
        </mxCell>
        <mxCell id="k28qQrlDTg5cHLkqzxxn-12" style="edgeStyle=none;curved=1;rounded=0;orthogonalLoop=1;jettySize=auto;html=1;exitX=0.5;exitY=1;exitDx=0;exitDy=0;entryX=0.5;entryY=0;entryDx=0;entryDy=0;fontSize=12;startSize=8;endSize=8;" edge="1" parent="1" source="k28qQrlDTg5cHLkqzxxn-9" target="ZHCm1Jnx4q_sE-uWkugh-28">
          <mxGeometry relative="1" as="geometry" />
        </mxCell>
        <mxCell id="k28qQrlDTg5cHLkqzxxn-13" style="edgeStyle=none;curved=1;rounded=0;orthogonalLoop=1;jettySize=auto;html=1;exitX=0.5;exitY=1;exitDx=0;exitDy=0;entryX=0.5;entryY=0;entryDx=0;entryDy=0;fontSize=12;startSize=8;endSize=8;" edge="1" parent="1" source="k28qQrlDTg5cHLkqzxxn-9" target="ZHCm1Jnx4q_sE-uWkugh-29">
          <mxGeometry relative="1" as="geometry" />
        </mxCell>
        <mxCell id="k28qQrlDTg5cHLkqzxxn-9" value="장바구니" style="whiteSpace=wrap;html=1;align=center;" vertex="1" parent="1">
          <mxGeometry x="264" y="130" width="100" height="40" as="geometry" />
        </mxCell>
      </root>
    </mxGraphModel>
  </diagram>
</mxfile>
